<?xml version="1.0" encoding="utf-8"?>
<!-- Generator: Adobe Illustrator 16.0.0, SVG Export Plug-In . SVG Version: 6.00 Build 0)  -->
<!DOCTYPE svg PUBLIC "-//W3C//DTD SVG 1.1//EN" "http://www.w3.org/Graphics/SVG/1.1/DTD/svg11.dtd">
<svg version="1.1" id="Layer_1" xmlns="http://www.w3.org/2000/svg" xmlns:xlink="http://www.w3.org/1999/xlink" x="0px" y="0px"
	 width="92.042px" height="95.175px" viewBox="0 0 92.042 95.175" enable-background="new 0 0 92.042 95.175" xml:space="preserve">
<g>
	<path fill="#FFFFFF" d="M16.875,14.766c-0.777,0-1.406,0.629-1.406,1.406v12.656c0,0.776,0.629,1.406,1.406,1.406
		c0.776,0,1.406-0.63,1.406-1.406V16.172C18.281,15.395,17.651,14.766,16.875,14.766z"/>
	<path fill="#FFFFFF" d="M28.125,14.766c-0.777,0-1.406,0.629-1.406,1.406v12.656c0,0.776,0.629,1.406,1.406,1.406
		c0.776,0,1.406-0.63,1.406-1.406V16.172C29.531,15.395,28.901,14.766,28.125,14.766z"/>
	<path fill="#FFFFFF" d="M22.5,0C16.49,0,10.84,2.341,6.591,6.591C2.341,10.84,0,16.49,0,22.5c0,6.009,2.341,11.66,6.59,15.908
		C10.84,42.659,16.49,45,22.5,45c6.009,0,11.66-2.341,15.909-6.592C42.659,34.16,45,28.509,45,22.5c0-6.01-2.341-11.66-6.591-15.909
		C34.16,2.341,28.509,0,22.5,0z M36.421,36.42c-3.719,3.719-8.663,5.768-13.921,5.768c-5.259,0-10.202-2.049-13.921-5.768
		C4.86,32.702,2.812,27.758,2.812,22.5S4.86,12.298,8.58,8.58c3.718-3.719,8.662-5.767,13.92-5.767S32.702,4.861,36.421,8.58
		c3.719,3.718,5.767,8.662,5.767,13.92S40.14,32.702,36.421,36.42z"/>
</g>
<g>
	<path fill="#FFFFFF" d="M22.279,49.606c-5.951,0-11.545,2.317-15.753,6.526S0,65.936,0,71.886c0,5.949,2.318,11.546,6.526,15.754
		s9.802,6.525,15.753,6.525c5.951,0,11.545-2.317,15.753-6.525s6.526-9.803,6.526-15.753s-2.318-11.546-6.526-15.753
		C33.825,51.923,28.23,49.606,22.279,49.606z M36.063,85.669c-3.682,3.684-8.578,5.711-13.784,5.711
		c-5.207,0-10.103-2.027-13.784-5.711c-3.683-3.683-5.71-8.578-5.71-13.783c0-5.206,2.028-10.102,5.711-13.784
		c3.681-3.683,8.577-5.711,13.784-5.711c5.207,0,10.102,2.028,13.784,5.711c3.683,3.683,5.71,8.578,5.71,13.784
		C41.774,77.091,39.746,81.988,36.063,85.669z"/>
	<path fill="#FFFFFF" d="M29.406,70.792l-9.748-7.658c-0.419-0.329-0.989-0.391-1.469-0.158c-0.479,0.232-0.783,0.719-0.783,1.252
		v15.316c0,0.533,0.304,1.02,0.783,1.252c0.194,0.095,0.402,0.141,0.609,0.141c0.307,0,0.61-0.102,0.86-0.298l9.748-7.658
		c0.335-0.265,0.532-0.668,0.532-1.095C29.938,71.458,29.741,71.055,29.406,70.792z M20.19,76.68v-9.587l6.101,4.793L20.19,76.68z"
		/>
</g>
<g>
	<path fill="#86754D" d="M63.917,14.766c-0.777,0-1.406,0.629-1.406,1.406v12.656c0,0.776,0.629,1.406,1.406,1.406
		c0.774,0,1.406-0.63,1.406-1.406V16.172C65.324,15.395,64.693,14.766,63.917,14.766z"/>
	<path fill="#86754D" d="M75.167,14.766c-0.777,0-1.406,0.629-1.406,1.406v12.656c0,0.776,0.629,1.406,1.406,1.406
		c0.774,0,1.406-0.63,1.406-1.406V16.172C76.574,15.395,75.943,14.766,75.167,14.766z"/>
	<path fill="#86754D" d="M69.542,0c-6.01,0-11.66,2.341-15.91,6.591c-4.25,4.249-6.59,9.899-6.59,15.909
		c0,6.009,2.34,11.66,6.59,15.908c4.25,4.251,9.9,6.592,15.91,6.592c6.008,0,11.66-2.341,15.908-6.592
		c4.25-4.248,6.592-9.899,6.592-15.908c0-6.01-2.342-11.66-6.592-15.909C81.203,2.341,75.55,0,69.542,0z M83.462,36.42
		c-3.719,3.719-8.662,5.768-13.92,5.768c-5.26,0-10.203-2.049-13.922-5.768c-3.72-3.718-5.768-8.662-5.768-13.92
		s2.048-10.202,5.768-13.92c3.719-3.719,8.662-5.767,13.92-5.767S79.744,4.861,83.462,8.58c3.719,3.718,5.767,8.662,5.767,13.92
		S87.182,32.702,83.462,36.42z"/>
</g>
<g>
	<path fill="#86754D" d="M69.763,49.606c-5.951,0-11.545,2.317-15.754,6.526c-4.207,4.207-6.525,9.803-6.525,15.752
		c0,5.951,2.318,11.546,6.525,15.754c4.209,4.208,9.803,6.525,15.754,6.525s11.545-2.317,15.753-6.525s6.526-9.803,6.526-15.754
		c0-5.949-2.318-11.545-6.526-15.752C81.308,51.923,75.712,49.606,69.763,49.606z M83.546,85.669
		c-3.683,3.684-8.578,5.711-13.783,5.711c-5.207,0-10.104-2.027-13.784-5.711c-3.683-3.683-5.71-8.578-5.71-13.783
		c0-5.206,2.027-10.102,5.711-13.784c3.682-3.683,8.577-5.711,13.784-5.711s10.103,2.028,13.784,5.711
		c3.683,3.683,5.709,8.578,5.709,13.784C89.257,77.091,87.229,81.988,83.546,85.669z"/>
	<path fill="#86754D" d="M76.889,70.792l-9.748-7.658c-0.419-0.329-0.989-0.391-1.47-0.158c-0.479,0.232-0.782,0.719-0.782,1.252
		v15.316c0,0.533,0.304,1.02,0.782,1.252c0.195,0.095,0.402,0.141,0.608,0.141c0.308,0,0.61-0.102,0.86-0.298l9.748-7.658
		c0.335-0.265,0.531-0.668,0.531-1.095C77.421,71.458,77.225,71.055,76.889,70.792z M67.673,76.68v-9.587l6.102,4.793L67.673,76.68z
		"/>
</g>
</svg>
